# xmcd
#
# Track frame offsets: 
#        150
#        15011
#        26692
#        45842
#        64653
#        78388
#        92973
#        108854
#        122692
#        140517
#
# Disc length: 2102 seconds
#
# Revision: 0
# Processed by: cddbd v1.5.2PL0 Copyright (c) Steve Scherf et al.
# Submitted via: ExactAudioCopy v1.0b3
#
DISCID=6f08340a
DTITLE=Blues Brothers - Berst of Blues Brothers
DYEAR=1997
DGENRE=Blues
TTITLE0=Expressway
TTITLE1=Everybody Needs Somebody To Love
TTITLE2=I Don't Know
TTITLE3=She Cought The Katy
TTITLE4=Soul Man
TTITLE5=Rubber Biscuit
TTITLE6=Goin' Back To Miami
TTITLE7=Gimme Some Lovin'
TTITLE8="B" Movie Box Car Blues
TTITLE9=Flip, Flop, Fly
EXTD=
EXTT0=
EXTT1=
EXTT2=
EXTT3=
EXTT4=
EXTT5=
EXTT6=
EXTT7=
EXTT8=
EXTT9=
PLAYORDER=
